<svg xmlns="http://www.w3.org/2000/svg" viewBox="0 0 20 20" fill="none"><path d="M16.4 14.292l-.896 3.023h-2.077l-1.305-3.023H16.4zm-6.39-2.777C9.244 9.72 8.35 7.363 8.597 7.19c.121-.085.599.326 1.36 1.613.085.145.07-.06.07-.152V1.868h-3.01c-.154 0-.19.002-.22.035-.027.03-.018.092.017.192C7.792 4.83 8.195 6.41 7.987 6.51c-.152.073-.63-.648-1.452-2.29C5.279 1.706 4.534.318 4.416.404c-.15.11.74 2.658 2.918 8.383.724 1.902.954 2.839.802 2.922-.133.073-.556-.521-1.17-1.713-.7-1.359-1.036-1.902-1.12-1.875-.102.032.162.894.59 2.158.677 1.993 1.808 5.413 1.57 5.543-.126.068-.441-.473-1.18-1.991-.153-.317-.238-.474-.278-.474-.022 0-.031.052-.031.152v2.227l-.818 1.579h3.765c-.973-2.668-1.254-3.852-1.099-3.927.188-.089 1.012 1.439 2.024 3.927.963.45 2.216 1.52 2.909 2.172.165.156.222.147.155-.007-.814-1.873-1.932-4.42-3.443-7.965z" fill="#32C8FF"/></svg>